<svg xmlns="http://www.w3.org/2000/svg" viewBox="0 0 483 140"><g><g><path class="broga b" d="M66.86,25.26c14.91,0,26.67,5.56,26.67,22.05,0,8-3.47,14.8-10.82,18.58,10.82,1.89,18.48,7.88,18.48,21.84,0,14.28-10.39,24.15-28.35,24.15H40V25.26ZM61.29,59.17c8.51,0,13.13-2.62,13.13-9.87,0-6.19-4.52-8.82-13.13-8.82H59.72V59.17Zm4.62,37.48c9.35,0,14.49-2.83,14.49-9.65,0-8-5.14-10.82-14.49-10.82H59.72V96.65Z"></path><path class="broga r" d="M140.88,25.26C157,25.26,169.12,34,169.12,51c0,13-7.14,21.74-17.74,25.1l29.82,35.8H156.11L129.65,77.65v34.23H109.91V25.26ZM132,63.69c7.45,0,16.38-.53,16.38-11.34S139.41,41,132,41h-2.31V63.69Z"></path><path class="broga o" d="M224.88,23.68c24,0,43.57,19.53,43.57,44.84s-18.69,44.93-43.57,44.93c-25.62,0-43.68-19.63-43.68-44.93S201.05,23.68,224.88,23.68Zm0,70.67c15.75,0,22.26-12.92,22.26-25.83s-6.93-25.83-22.26-25.83S202.52,55.6,202.52,68.52,208.71,94.35,224.88,94.35Z"></path><path class="broga g" d="M355.5,82.17c-4.73,21.94-23,31.28-40,31.28-23.3,0-42.2-20-42.2-44.83s17.85-44.94,42.2-44.94c15.23,0,25.83,5.67,33.39,14.81L336,52.66c-5-8.08-11.66-11.13-19.32-11.13-12.18,0-22,12.08-22,27.09,0,14.7,9.87,26.67,22,26.67,9.45,0,18.79-6.09,18.79-16.69H315.49V63.37h40Z"></path><path class="broga a" d="M443.17,111.88H422l-6.4-17.32h-33l-6.4,17.32H355l35-86.62h18.27ZM399.18,52H399l-9.66,25.2h19.53Z"></path><path class="broga open-curly" d="M0,62.81c5.25,0,8.54-2.32,8.54-7.93V22.31C8.54,12.19,12.32.23,27.94.23H39.77V15.84H34.89c-4.27,0-7.69,3.42-7.69,8.3V55.49c0,7-3.29,10.86-7.44,13.06,4.15,2.19,7.44,6.22,7.44,13V113c0,4.88,3.42,8.3,7.69,8.3h4.88v15.61H27.94c-15.62,0-19.4-12-19.4-22.08V82.21c0-5.61-3.29-7.93-8.54-7.93Z"></path><path class="broga close-curly" d="M482.77,74.59c-5.24,0-8.54,2.32-8.54,7.93V115.1c0,10.12-3.78,22.08-19.39,22.08H443V121.56h4.88c4.27,0,7.69-3.41,7.69-8.29V81.91c0-6.83,3.29-10.85,7.44-13-4.15-2.2-7.44-6.1-7.44-13V24.45c0-4.88-3.42-8.29-7.69-8.29H443V.54h11.84c15.61,0,19.39,12,19.39,22.08V55.2c0,5.61,3.3,7.93,8.54,7.93Z"></path><path class="emerson e" d="M281.72,8.88a3.15,3.15,0,0,0,3.33,3.18,4.22,4.22,0,0,0,3.75-1.71l3.84,1.92c-1.74,2.91-4.56,4-8,4a8.33,8.33,0,0,1-8.46-8.13A8.33,8.33,0,0,1,284.66,0c4.68,0,8.25,2.76,8.25,8.16a5.54,5.54,0,0,1,0,.72Zm6-2.94a2.73,2.73,0,0,0-2.91-2.49,2.65,2.65,0,0,0-2.94,2.49Z"></path><path class="emerson m" d="M295.34.45h5.31V2.07h.06A6.37,6.37,0,0,1,305.12,0a5.81,5.81,0,0,1,5.37,2.82A6.77,6.77,0,0,1,315.59,0c2.82,0,6,1.41,6,5.7V15.84h-5.31V7.14a2.6,2.6,0,0,0-2.7-2.88,2.36,2.36,0,0,0-2.46,2.4v9.18h-5.31V7.14a2.6,2.6,0,0,0-2.7-2.88,2.38,2.38,0,0,0-2.46,2.58v9h-5.31Z"></path><path class="emerson e2" d="M329.3,8.88a3.15,3.15,0,0,0,3.33,3.18,4.22,4.22,0,0,0,3.75-1.71l3.84,1.92c-1.74,2.91-4.56,4-8,4a8.33,8.33,0,0,1-8.46-8.13A8.33,8.33,0,0,1,332.24,0c4.68,0,8.25,2.76,8.25,8.16a5.54,5.54,0,0,1,0,.72Zm6-2.94a2.73,2.73,0,0,0-2.91-2.49,2.65,2.65,0,0,0-2.94,2.49Z"></path><path class="emerson r" d="M342.92.45h5.31V2.67h.06A6,6,0,0,1,353,0a6.38,6.38,0,0,1,3.36,1l-2.22,4.5a4.48,4.48,0,0,0-2.76-.84,3.19,3.19,0,0,0-3.15,3.12v8.1h-5.31Z"></path><path class="emerson s" d="M369.47,1.2l-1.74,3.48a8.67,8.67,0,0,0-3.42-1c-1.17,0-1.65.21-1.65.93s1.08,1,2.4,1.47c2,.63,4.68,1.77,4.68,4.92,0,4.53-4.14,5.25-7.29,5.25a9.21,9.21,0,0,1-5.94-2.07l2.16-3.63s2.1,1.77,3.81,1.77c.75,0,1.65-.09,1.65-1.11s-1.68-1.2-3.42-2.1c-1.56-.81-3.12-1.89-3.12-4.2,0-3.15,2.67-4.95,6.72-4.95A11.75,11.75,0,0,1,369.47,1.2Z"></path><path class="emerson o" d="M380.54,0c5.1,0,9.18,3.36,9.18,8.16s-3.87,8.13-9.18,8.13c-5.55,0-9.27-3.39-9.27-8.13S375.35,0,380.54,0Zm0,11.76a3.46,3.46,0,0,0,3.57-3.6,3.59,3.59,0,1,0-7.17,0A3.43,3.43,0,0,0,380.51,11.76Z"></path><path class="emerson n" d="M392.15.45h5.31V2.07h.06A6.37,6.37,0,0,1,401.93,0c2.82,0,6.75,1.41,6.75,5.7V15.84h-5.31V7.14a2.84,2.84,0,0,0-2.76-3,3.27,3.27,0,0,0-3.15,3v8.7h-5.31Z"></path><path class="emersonbroga-com e" d="M209.66,129.56a2.1,2.1,0,0,0,2.22,2.12,2.82,2.82,0,0,0,2.5-1.14l2.56,1.28a5.71,5.71,0,0,1-5.32,2.68,5.43,5.43,0,1,1,0-10.86c3.12,0,5.5,1.84,5.5,5.44a3.7,3.7,0,0,1,0,.48Zm4-2a1.82,1.82,0,0,0-1.94-1.66,1.77,1.77,0,0,0-2,1.66Z"></path><path class="emersonbroga-com m" d="M218.74,123.94h3.54V125h0a4.25,4.25,0,0,1,2.94-1.38,3.87,3.87,0,0,1,3.58,1.88,4.51,4.51,0,0,1,3.4-1.88c1.88,0,4,.94,4,3.8v6.76H232.7v-5.8a1.73,1.73,0,0,0-1.8-1.92,1.57,1.57,0,0,0-1.64,1.6v6.12h-3.54v-5.8a1.73,1.73,0,0,0-1.8-1.92,1.59,1.59,0,0,0-1.64,1.72v6h-3.54Z"></path><path class="emersonbroga-com e2" d="M241.38,129.56a2.1,2.1,0,0,0,2.22,2.12,2.82,2.82,0,0,0,2.5-1.14l2.56,1.28a5.71,5.71,0,0,1-5.32,2.68,5.43,5.43,0,1,1,0-10.86c3.12,0,5.5,1.84,5.5,5.44a3.7,3.7,0,0,1,0,.48Zm4-2a1.82,1.82,0,0,0-1.94-1.66,1.77,1.77,0,0,0-2,1.66Z"></path><path class="emersonbroga-com r" d="M250.46,123.94H254v1.48h0a4,4,0,0,1,3.14-1.78,4.25,4.25,0,0,1,2.24.64l-1.48,3a3,3,0,0,0-1.84-.56,2.13,2.13,0,0,0-2.1,2.08v5.4h-3.54Z"></path><path class="emersonbroga-com s" d="M268.16,124.44,267,126.76a5.78,5.78,0,0,0-2.28-.64c-.78,0-1.1.14-1.1.62s.72.7,1.6,1c1.36.42,3.12,1.18,3.12,3.28,0,3-2.76,3.5-4.86,3.5a6.14,6.14,0,0,1-4-1.38L261,130.7a5.13,5.13,0,0,0,2.54,1.18c.5,0,1.1-.06,1.1-.74s-1.12-.8-2.28-1.4a3.1,3.1,0,0,1-2.08-2.8c0-2.1,1.78-3.3,4.48-3.3A7.83,7.83,0,0,1,268.16,124.44Z"></path><path class="emersonbroga-com o" d="M275.54,123.64c3.4,0,6.12,2.24,6.12,5.44s-2.58,5.42-6.12,5.42c-3.7,0-6.18-2.26-6.18-5.42S272.08,123.64,275.54,123.64Zm0,7.84a2.31,2.31,0,0,0,2.38-2.4,2.39,2.39,0,1,0-4.78,0A2.29,2.29,0,0,0,275.52,131.48Z"></path><path class="emersonbroga-com n" d="M283.28,123.94h3.54V125h0a4.25,4.25,0,0,1,2.94-1.38c1.88,0,4.5.94,4.5,3.8v6.76h-3.54v-5.8a1.9,1.9,0,0,0-1.84-2,2.18,2.18,0,0,0-2.1,2v5.8h-3.54Z"></path><path class="emersonbroga-com b" d="M303.4,134.5A4.54,4.54,0,0,1,300,133h0v1.16h-3.5V117H300v7.92a4.67,4.67,0,0,1,3.36-1.28,5.44,5.44,0,0,1,0,10.86Zm-1.06-7.84a2.35,2.35,0,0,0-2.38,2.42,2.39,2.39,0,1,0,4.78,0A2.35,2.35,0,0,0,302.34,126.66Z"></path><path class="emersonbroga-com r" d="M310.16,123.94h3.54v1.48h0a4,4,0,0,1,3.14-1.78,4.25,4.25,0,0,1,2.24.64l-1.48,3a3,3,0,0,0-1.84-.56,2.13,2.13,0,0,0-2.1,2.08v5.4h-3.54Z"></path><path class="emersonbroga-com o" d="M325.44,123.64c3.4,0,6.12,2.24,6.12,5.44s-2.58,5.42-6.12,5.42c-3.7,0-6.18-2.26-6.18-5.42S322,123.64,325.44,123.64Zm0,7.84a2.31,2.31,0,0,0,2.38-2.4,2.39,2.39,0,1,0-4.78,0A2.29,2.29,0,0,0,325.42,131.48Z"></path><path class="emersonbroga-com g" d="M335.66,135.3a3.09,3.09,0,0,0,2.78,1.32,2.36,2.36,0,0,0,2.5-2.4v-.76a4.32,4.32,0,0,1-3.36,1,5.44,5.44,0,0,1,0-10.86,4.69,4.69,0,0,1,3.3,1.22h.06v-.92h3.54v10.54c0,3.44-2.54,5.22-6,5.22-2.14,0-4.6-.48-5.68-3Zm3-3.82a2.31,2.31,0,0,0,2.38-2.4,2.39,2.39,0,1,0-4.78,0A2.29,2.29,0,0,0,338.64,131.48Z"></path><path class="emersonbroga-com a" d="M351.24,123.64a4.67,4.67,0,0,1,3.36,1.28v-1h3.54V134.2h-3.5V133h0a4.54,4.54,0,0,1-3.36,1.46,5.44,5.44,0,0,1,0-10.86Zm1.06,7.84a2.31,2.31,0,0,0,2.38-2.4,2.39,2.39,0,1,0-4.78,0A2.29,2.29,0,0,0,352.3,131.48Z"></path><path class="emersonbroga-com dot" d="M365.12,132.22a2.29,2.29,0,1,1-2.3-2.3A2.28,2.28,0,0,1,365.12,132.22Z"></path><path class="emersonbroga-com c" d="M370.54,129.06A2.49,2.49,0,0,0,373,131.6a3.12,3.12,0,0,0,1.72-.48l1.2,2.46a5.8,5.8,0,0,1-3.44.92,5.44,5.44,0,1,1,3.44-9.9L374.7,127a3.12,3.12,0,0,0-1.72-.48A2.48,2.48,0,0,0,370.54,129.06Z"></path><path class="emersonbroga-com o" d="M382.78,123.64c3.4,0,6.12,2.24,6.12,5.44s-2.58,5.42-6.12,5.42c-3.7,0-6.18-2.26-6.18-5.42S379.32,123.64,382.78,123.64Zm0,7.84a2.31,2.31,0,0,0,2.38-2.4,2.39,2.39,0,1,0-4.78,0A2.29,2.29,0,0,0,382.76,131.48Z"></path><path class="emersonbroga-com m2" d="M390.52,123.94h3.54V125h0a4.25,4.25,0,0,1,2.94-1.38,3.87,3.87,0,0,1,3.58,1.88,4.51,4.51,0,0,1,3.4-1.88c1.88,0,4,.94,4,3.8v6.76h-3.54v-5.8a1.73,1.73,0,0,0-1.8-1.92,1.57,1.57,0,0,0-1.64,1.6v6.12H397.5v-5.8a1.73,1.73,0,0,0-1.8-1.92,1.59,1.59,0,0,0-1.64,1.72v6h-3.54Z"></path></g></g></svg>