<?xml version="1.0" encoding="UTF-8" standalone="no"?>
<svg
   xmlns:dc="http://purl.org/dc/elements/1.1/"
   xmlns:cc="http://creativecommons.org/ns#"
   xmlns:rdf="http://www.w3.org/1999/02/22-rdf-syntax-ns#"
   xmlns:svg="http://www.w3.org/2000/svg"
   xmlns="http://www.w3.org/2000/svg"
   xmlns:sodipodi="http://sodipodi.sourceforge.net/DTD/sodipodi-0.dtd"
   xmlns:inkscape="http://www.inkscape.org/namespaces/inkscape"
   inkscape:version="1.0 (4035a4fb49, 2020-05-01)"
   sodipodi:docname="logo-tony.svg"
   id="svg66"
   version="1.1"
   viewBox="0 0 483 140">
  <metadata
     id="metadata72">
    <rdf:RDF>
      <cc:Work
         rdf:about="">
        <dc:format>image/svg+xml</dc:format>
        <dc:type
           rdf:resource="http://purl.org/dc/dcmitype/StillImage" />
        <dc:title></dc:title>
      </cc:Work>
    </rdf:RDF>
  </metadata>
  <defs
     id="defs70" />
  <sodipodi:namedview
     inkscape:current-layer="svg66"
     inkscape:window-maximized="1"
     inkscape:window-y="-8"
     inkscape:window-x="-8"
     inkscape:cy="49.621545"
     inkscape:cx="245.8716"
     inkscape:zoom="1.7084754"
     showgrid="false"
     id="namedview68"
     inkscape:window-height="705"
     inkscape:window-width="1366"
     inkscape:pageshadow="2"
     inkscape:pageopacity="0"
     guidetolerance="10"
     gridtolerance="10"
     objecttolerance="10"
     borderopacity="1"
     bordercolor="#666666"
     pagecolor="#ffffff" />
  <g
     transform="translate(-3.7624676e-8,0.58531718)"
     id="g64"><g
   id="g62">
  <path
     style="stroke-width:0.91823"
     class="broga a"
     d="M 131.92096,109.90574 H 113.70224 L 108.19446,92.936853 H 79.794943 L 74.287159,109.90574 H 56.042622 L 86.163319,25.041694 H 101.88632 Z M 94.063548,51.239624 h -0.154907 l -8.313312,24.689149 h 16.807351 z"
     id="path10-6" />
  <path
     style="stroke-width:8.76015"
     class="emersonbroga-com c"
     d="m 204.02216,67.691029 a 22.970516,20.71339 0 0 0 22.69377,21.129322 28.782332,25.954128 0 0 0 15.86718,-3.992943 l 11.07013,20.463842 a 53.505617,48.248057 0 0 1 -31.73436,7.65313 50.18458,45.253351 0 1 1 31.73436,-82.354451 l -11.25463,19.964722 a 28.782332,25.954128 0 0 0 -15.86718,-3.992944 22.878264,20.630204 0 0 0 -22.50927,21.129322 z"
     id="path56-0" />
  <path
     style="stroke-width:6.03565"
     class="emerson n"
     d="m 301.99149,22.097595 h 33.7016 v 9.298355 h 0.38081 a 40.429227,36.562049 0 0 1 27.98947,-11.88123 c 17.89802,0 42.84102,8.093012 42.84102,32.716432 V 110.43196 H 373.20278 V 60.496357 A 18.024962,16.300819 0 0 0 355.68557,43.277181 20.754093,18.768901 0 0 0 335.69309,60.496357 v 49.935603 h -33.7016 z"
     id="path28-8" />
  <path
     id="path12"
     d="m 0,62.81 c 5.25,0 8.54,-2.32 8.54,-7.93 V 22.31 c 0,-10.12 3.78,-22.08 19.4,-22.08 h 11.83 v 15.61 h -4.88 c -4.27,0 -7.69,3.42 -7.69,8.3 v 31.35 c 0,7 -3.29,10.86 -7.44,13.06 4.15,2.19 7.44,6.22 7.44,13 V 113 c 0,4.88 3.42,8.3 7.69,8.3 h 4.88 v 15.61 H 27.94 c -15.62,0 -19.4,-12 -19.4,-22.08 V 82.21 C 8.54,76.6 5.25,74.28 0,74.28 Z"
     class="broga open-curly" />
  <path
     id="path14"
     d="m 482.77,74.59 c -5.24,0 -8.54,2.32 -8.54,7.93 v 32.58 c 0,10.12 -3.78,22.08 -19.39,22.08 H 443 v -15.62 h 4.88 c 4.27,0 7.69,-3.41 7.69,-8.29 V 81.91 c 0,-6.83 3.29,-10.85 7.44,-13 -4.15,-2.2 -7.44,-6.1 -7.44,-13 V 24.45 c 0,-4.88 -3.42,-8.29 -7.69,-8.29 H 443 V 0.54 h 11.84 c 15.61,0 19.39,12 19.39,22.08 V 55.2 c 0,5.61 3.3,7.93 8.54,7.93 z"
     class="broga close-curly" />
</g>
</g>
</svg>
